<?xml version="1.0" standalone="no"?>
<!DOCTYPE svg PUBLIC "-//W3C//DTD SVG 20010904//EN"
 "http://www.w3.org/TR/2001/REC-SVG-20010904/DTD/svg10.dtd">
<svg version="1.0" xmlns="http://www.w3.org/2000/svg"
 width="260.000000pt" height="260.000000pt" viewBox="0 0 260.000000 260.000000"
 preserveAspectRatio="xMidYMid meet">
<metadata>
Created by potrace 1.14, written by Peter Selinger 2001-2017
</metadata>
<g transform="translate(0.000000,260.000000) scale(0.100000,-0.100000)"
fill="#000000" stroke="none">
<path d="M955 2296 c-11 -7 -87 -53 -170 -101 -82 -48 -160 -99 -172 -112 -22
-23 -23 -31 -23 -208 l0 -183 -147 -87 c-82 -48 -154 -95 -161 -103 -9 -12
-12 -73 -12 -228 0 -183 2 -213 16 -225 9 -8 85 -54 168 -104 l151 -90 3 -184
c1 -117 7 -189 14 -198 19 -24 328 -203 349 -203 12 0 88 41 170 90 145 87
151 90 177 76 15 -8 83 -48 152 -90 68 -42 133 -76 144 -76 19 0 281 150 344
197 l32 24 0 183 c0 162 2 185 17 198 10 8 84 54 164 101 81 47 149 93 153
102 3 9 6 106 6 215 0 184 -1 201 -19 217 -11 10 -80 53 -154 96 -75 43 -140
84 -146 91 -6 7 -12 86 -13 202 l-3 189 -185 112 c-102 61 -194 112 -204 112
-11 1 -85 -38 -164 -85 l-144 -85 -72 42 c-241 142 -234 139 -271 115z m178
-151 c65 -38 117 -73 117 -76 0 -13 -242 -151 -249 -143 -9 12 -1 296 8 292 4
-2 60 -34 124 -73z m467 -76 c0 -115 -3 -150 -12 -147 -18 4 -248 142 -248
148 1 6 242 150 253 150 4 0 7 -68 7 -151z m-678 -70 c3 -155 5 -183 19 -192
13 -8 48 9 162 76 80 48 148 87 151 87 4 0 6 -65 6 -145 l0 -145 -37 -24 c-21
-13 -93 -55 -159 -94 -86 -50 -123 -78 -128 -94 -3 -13 -6 -102 -6 -198 l0
-176 -115 -67 c-63 -37 -119 -67 -124 -67 -7 0 -12 65 -13 176 -3 148 -6 178
-19 187 -12 7 -49 -10 -160 -75 -79 -47 -148 -82 -152 -78 -4 3 -6 69 -5 146
l3 139 160 95 160 96 3 195 2 194 118 72 c64 39 120 72 124 72 4 1 9 -81 10
-180z m873 116 c149 -87 135 -58 135 -279 l0 -191 160 -94 160 -94 0 -149 0
-150 -32 20 c-163 97 -261 152 -273 152 -28 0 -35 -39 -35 -204 0 -91 -3 -166
-7 -166 -5 0 -60 31 -123 68 l-115 68 -3 192 -2 191 -33 24 c-17 13 -89 57
-159 98 l-127 74 -3 143 c-2 79 0 146 4 148 3 2 70 -34 148 -81 77 -47 147
-85 154 -85 32 0 36 24 36 203 0 98 3 176 8 174 4 -2 52 -30 107 -62z m-376
-577 c67 -39 121 -74 121 -77 0 -3 -55 -38 -121 -77 l-122 -72 -118 72 c-66
39 -118 74 -116 79 1 5 224 145 234 147 1 0 56 -32 122 -72z m-247 -241 l88
-52 0 -148 0 -149 -37 22 c-21 12 -77 45 -125 74 l-88 51 0 148 0 149 38 -22
c20 -12 76 -45 124 -73z m418 -51 c0 -95 -4 -136 -12 -144 -17 -13 -228 -142
-234 -142 -2 0 -4 65 -4 144 l0 144 118 69 c64 38 120 68 125 66 4 -2 7 -64 7
-137z m-980 -160 c0 -69 -3 -127 -8 -130 -8 -5 -209 114 -214 127 -3 9 190
126 210 127 9 0 12 -31 12 -124z m1494 68 c53 -31 96 -60 96 -65 0 -6 -167
-112 -202 -127 -5 -2 -8 53 -8 122 0 72 4 126 9 126 6 0 53 -25 105 -56z
m-970 -224 c82 -50 155 -90 161 -90 6 0 80 41 165 90 84 50 156 89 160 88 31
-15 230 -133 230 -138 0 -3 -63 -42 -140 -88 -106 -62 -140 -87 -140 -102 0
-22 25 -39 183 -130 53 -30 95 -59 94 -65 -2 -5 -55 -40 -119 -77 l-115 -68
-149 90 c-82 49 -159 90 -171 90 -12 0 -89 -41 -172 -91 l-150 -90 -121 72
c-66 39 -120 74 -120 78 1 3 60 40 132 81 133 76 156 95 145 122 -3 9 -66 51
-141 94 -75 44 -136 81 -136 84 0 9 224 140 240 140 8 0 82 -41 164 -90z
m-359 -170 c134 -80 131 -64 19 -130 -55 -32 -102 -56 -106 -53 -10 5 -11 217
-2 226 4 4 10 5 13 3 3 -2 38 -23 76 -46z m1135 -70 c0 -66 -3 -120 -7 -120
-13 0 -203 111 -203 119 0 7 189 121 202 121 5 0 8 -54 8 -120z"/>
</g>
</svg>
